<svg width="32" height="32" viewBox="0 0 32 32" fill="none" xmlns="http://www.w3.org/2000/svg">
<path d="M26.1427 9.32665C26.0413 8.92931 25.7533 8.62931 25.424 8.53731C24.84 8.37331 22.0013 7.99998 16.0013 7.99998C10.0013 7.99998 7.16399 8.37331 6.57599 8.53731C6.25066 8.62798 5.96266 8.92798 5.85999 9.32665C5.71466 9.89198 5.33466 12.26 5.33466 16C5.33466 19.7386 5.71466 22.1066 5.85999 22.6746C5.96132 23.0706 6.24932 23.3706 6.57732 23.4613C7.16399 23.6266 9.99999 24 16 24C22 24 24.8387 23.6266 25.4253 23.4626C25.7507 23.372 26.0387 23.072 26.1413 22.6733C26.288 22.108 26.6667 19.7333 26.6667 16C26.6667 12.2666 26.288 9.89331 26.1427 9.32665ZM28.7253 8.66398C29.3347 11.04 29.3347 16 29.3347 16C29.3347 16 29.3347 20.96 28.7253 23.336C28.3867 24.6493 27.396 25.6826 26.1413 26.032C23.8627 26.6666 16 26.6666 16 26.6666C16 26.6666 8.14266 26.6666 5.85999 26.032C4.59999 25.6773 3.61066 24.6453 3.27599 23.336C2.66666 20.96 2.66666 16 2.66666 16C2.66666 16 2.66666 11.04 3.27599 8.66398C3.61466 7.35065 4.60532 6.31731 5.85999 5.96798C8.14399 5.33331 16.0013 5.33331 16.0013 5.33331C16.0013 5.33331 23.8627 5.33331 26.1413 5.96798C27.4 6.32265 28.3907 7.35465 28.7253 8.66398ZM13.3347 20.6666V11.3333L21.3347 16L13.3347 20.6666Z" fill="white"/>
</svg>
