<svg width="32" height="32" viewBox="0 0 32 32" fill="none" xmlns="http://www.w3.org/2000/svg">
<path d="M23.12 7.28002C22.8035 7.28002 22.4942 7.37386 22.2311 7.54967C21.968 7.72548 21.7629 7.97536 21.6418 8.26773C21.5207 8.56009 21.489 8.88179 21.5507 9.19216C21.6125 9.50253 21.7649 9.78763 21.9886 10.0114C22.2124 10.2352 22.4975 10.3875 22.8079 10.4493C23.1182 10.511 23.4399 10.4793 23.7323 10.3582C24.0247 10.2371 24.2745 10.0321 24.4503 9.76893C24.6262 9.50581 24.72 9.19647 24.72 8.88002C24.72 8.45567 24.5514 8.04871 24.2514 7.74865C23.9513 7.44859 23.5443 7.28002 23.12 7.28002ZM29.2533 10.5067C29.2274 9.40042 29.0202 8.30589 28.64 7.26669C28.301 6.37753 27.7733 5.57239 27.0933 4.90669C26.4331 4.22325 25.6261 3.69892 24.7333 3.37335C23.6969 2.98157 22.6011 2.76963 21.4933 2.74669C20.08 2.66669 19.6267 2.66669 16 2.66669C12.3733 2.66669 11.92 2.66669 10.5067 2.74669C9.39887 2.76963 8.30312 2.98157 7.26666 3.37335C6.37557 3.70222 5.56924 4.2261 4.90666 4.90669C4.22323 5.56692 3.6989 6.37394 3.37333 7.26669C2.98155 8.30314 2.76961 9.39889 2.74666 10.5067C2.66666 11.92 2.66666 12.3734 2.66666 16C2.66666 19.6267 2.66666 20.08 2.74666 21.4934C2.76961 22.6012 2.98155 23.6969 3.37333 24.7334C3.6989 25.6261 4.22323 26.4331 4.90666 27.0934C5.56924 27.7739 6.37557 28.2978 7.26666 28.6267C8.30312 29.0185 9.39887 29.2304 10.5067 29.2534C11.92 29.3334 12.3733 29.3334 16 29.3334C19.6267 29.3334 20.08 29.3334 21.4933 29.2534C22.6011 29.2304 23.6969 29.0185 24.7333 28.6267C25.6261 28.3011 26.4331 27.7768 27.0933 27.0934C27.7763 26.4301 28.3044 25.6243 28.64 24.7334C29.0202 23.6941 29.2274 22.5996 29.2533 21.4934C29.2533 20.08 29.3333 19.6267 29.3333 16C29.3333 12.3734 29.3333 11.92 29.2533 10.5067ZM26.8533 21.3334C26.8436 22.1797 26.6903 23.0183 26.4 23.8134C26.1871 24.3936 25.8452 24.9179 25.4 25.3467C24.9675 25.7874 24.4443 26.1286 23.8667 26.3467C23.0716 26.637 22.233 26.7903 21.3867 26.8C20.0533 26.8667 19.56 26.88 16.0533 26.88C12.5467 26.88 12.0533 26.88 10.72 26.8C9.84118 26.8165 8.96612 26.6812 8.13333 26.4C7.58104 26.1708 7.08181 25.8304 6.66666 25.4C6.22412 24.9717 5.88646 24.4469 5.68 23.8667C5.35447 23.0602 5.17392 22.2026 5.14666 21.3334C5.14666 20 5.06666 19.5067 5.06666 16C5.06666 12.4934 5.06666 12 5.14666 10.6667C5.15264 9.80143 5.3106 8.94395 5.61333 8.13335C5.84806 7.57057 6.20835 7.0689 6.66666 6.66669C7.07175 6.20824 7.57238 5.84415 8.13333 5.60002C8.94606 5.30674 9.80266 5.15346 10.6667 5.14669C12 5.14669 12.4933 5.06669 16 5.06669C19.5067 5.06669 20 5.06669 21.3333 5.14669C22.1797 5.15639 23.0183 5.30968 23.8133 5.60002C24.4192 5.82489 24.9631 6.19048 25.4 6.66669C25.8369 7.07626 26.1783 7.577 26.4 8.13335C26.6963 8.94526 26.8497 9.80239 26.8533 10.6667C26.92 12 26.9333 12.4934 26.9333 16C26.9333 19.5067 26.92 20 26.8533 21.3334ZM16 9.16002C14.6477 9.16266 13.3266 9.56605 12.2035 10.3192C11.0805 11.0724 10.2058 12.1416 9.69018 13.3917C9.17452 14.6418 9.04096 16.0166 9.30639 17.3426C9.57182 18.6685 10.2243 19.8861 11.1814 20.8413C12.1386 21.7966 13.3573 22.4467 14.6838 22.7096C16.0103 22.9724 17.3849 22.8362 18.634 22.3181C19.883 21.8 20.9505 20.9233 21.7015 19.7987C22.4525 18.6742 22.8533 17.3523 22.8533 16C22.8551 15.1002 22.6789 14.2088 22.335 13.3773C21.991 12.5458 21.4861 11.7904 20.8492 11.1548C20.2122 10.5191 19.4559 10.0156 18.6237 9.67326C17.7915 9.33093 16.8999 9.1565 16 9.16002ZM16 20.44C15.1218 20.44 14.2634 20.1796 13.5333 19.6917C12.8031 19.2039 12.234 18.5104 11.898 17.6991C11.5619 16.8878 11.474 15.9951 11.6453 15.1338C11.8166 14.2725 12.2395 13.4814 12.8604 12.8605C13.4814 12.2395 14.2725 11.8167 15.1338 11.6453C15.9951 11.474 16.8878 11.5619 17.6991 11.898C18.5104 12.234 19.2038 12.8031 19.6917 13.5333C20.1796 14.2634 20.44 15.1219 20.44 16C20.44 16.5831 20.3252 17.1604 20.102 17.6991C19.8789 18.2378 19.5518 18.7273 19.1396 19.1396C18.7273 19.5519 18.2378 19.8789 17.6991 20.102C17.1604 20.3252 16.5831 20.44 16 20.44Z" fill="white"/>
</svg>
